<svg xmlns="http://www.w3.org/2000/svg" width="12.435" height="23" viewBox="0 0 12.435 23">
  <g id="facebook-logo" transform="translate(-22.077)">
    <path id="Path_9" data-name="Path 9" d="M34.044,0,31.061,0c-3.351,0-5.516,2.222-5.516,5.66V8.27h-3a.469.469,0,0,0-.469.469v3.781a.469.469,0,0,0,.469.469h3v9.541a.469.469,0,0,0,.469.469h3.913a.469.469,0,0,0,.469-.469V12.99H33.9a.469.469,0,0,0,.469-.469V8.739A.469.469,0,0,0,33.9,8.27H30.4V6.058c0-1.063.253-1.6,1.639-1.6h2.009a.469.469,0,0,0,.469-.469V.474A.469.469,0,0,0,34.044,0Z" fill="#fff"/>
  </g>
</svg>
