<svg xmlns="http://www.w3.org/2000/svg" width="24.072" height="23.002" viewBox="0 0 24.072 23.002">
  <g id="linkedin-logo" transform="translate(0 -9.558)">
    <path id="LinkedIn" d="M24.072,23.66v8.9H18.912v-8.3c0-2.086-.746-3.509-2.614-3.509a2.823,2.823,0,0,0-2.647,1.887,3.53,3.53,0,0,0-.171,1.258V32.56H8.319s.07-14.063,0-15.52H13.48v2.2c-.01.016-.024.034-.034.05h.034v-.05a5.124,5.124,0,0,1,4.651-2.565C21.526,16.675,24.072,18.893,24.072,23.66ZM2.92,9.558a2.689,2.689,0,1,0-.069,5.364h.034A2.69,2.69,0,1,0,2.92,9.558Zm-2.614,23H5.466V17.04H.307Z" fill="#fff"/>
  </g>
</svg>
