<svg xmlns="http://www.w3.org/2000/svg" width="24.122" height="18.091" viewBox="0 0 24.122 18.091">
  <g id="mail-black-envelope-symbol" transform="translate(0 -60.651)">
    <path id="Path_8" data-name="Path 8" d="M24.122,75.727a2.989,2.989,0,0,1-.387,1.45l-7.616-8.522,7.534-6.591a2.993,2.993,0,0,1,.47,1.6V75.727ZM12.061,70.2l10.483-9.172a2.978,2.978,0,0,0-1.437-.38H3.015a2.967,2.967,0,0,0-1.436.38Zm2.923-.555-2.427,2.124a.757.757,0,0,1-.992,0L9.138,69.648l-7.713,8.63a2.979,2.979,0,0,0,1.59.464H21.107a2.979,2.979,0,0,0,1.59-.464ZM.47,62.065a2.994,2.994,0,0,0-.47,1.6V75.727a2.979,2.979,0,0,0,.387,1.45L8,68.654Z" fill="#fff"/>
  </g>
</svg>
