<svg xmlns="http://www.w3.org/2000/svg" width="22.842" height="19" viewBox="0 0 22.842 19">
  <path id="twitter" d="M22.479,36.7a9.045,9.045,0,0,1-1.575.531,4.911,4.911,0,0,0,1.3-2.064h0a.258.258,0,0,0-.377-.3h0a9.088,9.088,0,0,1-2.408.995.614.614,0,0,1-.15.019.638.638,0,0,1-.422-.161,4.924,4.924,0,0,0-3.258-1.23,5.265,5.265,0,0,0-1.56.241,4.771,4.771,0,0,0-3.215,3.437,5.253,5.253,0,0,0-.117,1.813.176.176,0,0,1-.044.138.183.183,0,0,1-.136.062H10.5A12.913,12.913,0,0,1,1.62,35.44h0a.257.257,0,0,0-.422.033h0A4.93,4.93,0,0,0,2,41.459a4.413,4.413,0,0,1-1.123-.435h0a.257.257,0,0,0-.382.222h0A4.931,4.931,0,0,0,3.37,45.789H3.265a4.431,4.431,0,0,1-.83-.079h0a.258.258,0,0,0-.294.331h0A4.935,4.935,0,0,0,6.04,49.4,9.087,9.087,0,0,1,.95,50.945H.381a.377.377,0,0,0-.369.284A.39.39,0,0,0,.2,51.66a13.516,13.516,0,0,0,6.792,1.831,13.7,13.7,0,0,0,5.8-1.231,12.817,12.817,0,0,0,4.247-3.182,13.952,13.952,0,0,0,2.6-4.355,13.757,13.757,0,0,0,.884-4.766v-.075a.838.838,0,0,1,.314-.652A9.733,9.733,0,0,0,22.8,37.08h0a.257.257,0,0,0-.318-.378Z" transform="translate(0 -34.491)" fill="#fff"/>
</svg>
